<svg xmlns="http://www.w3.org/2000/svg" viewBox="0 0 176 176"><defs><style>.cls-1{fill:none;}.cls-2{fill:#005572;}</style></defs><g id="icon_art" data-name="icon art"><rect class="cls-1" width="176" height="176"/><rect class="cls-1" width="176" height="176"/><path class="cls-2" d="M74.61,104.21H87.88a.71.71,0,0,0,.6-1.08L84.8,97.19a5.38,5.38,0,0,0,1.67-4.92,5.39,5.39,0,0,0-10.7,1,5.37,5.37,0,0,0,1.85,4L74,103.13A.71.71,0,0,0,74.61,104.21Z"/><path class="cls-2" d="M88,173.91a7.55,7.55,0,0,1-3.19-.7c-55-25.34-74.54-84-74.54-130.53a7.63,7.63,0,0,1,4.38-6.9l70.1-33a7.54,7.54,0,0,1,6.51,0l70.09,33a7.66,7.66,0,0,1,4.38,6.9c0,46.49-19.58,105.19-74.54,130.53A7.55,7.55,0,0,1,88,173.91ZM88,9.09a.69.69,0,0,0-.24.05l-70.13,33a.62.62,0,0,0-.35.55C17.27,87,35.78,142.9,87.74,166.85a.59.59,0,0,0,.52,0c52-23.95,70.47-79.85,70.47-124.17a.62.62,0,0,0-.36-.56l-70.1-33A.61.61,0,0,0,88,9.09Z"/><path class="cls-2" d="M101.6,118H60.15a8,8,0,0,1-8-8V82.37a8,8,0,0,1,7.24-8V60.11a22.13,22.13,0,0,1,44.26,0v1.83a3,3,0,0,1-6,0V60.11a16.13,16.13,0,0,0-32.26,0V74.35H101.6a8,8,0,0,1,8,8V110A8,8,0,0,1,101.6,118ZM60.15,80.35a2,2,0,0,0-2,2V110a2,2,0,0,0,2,2H101.6a2,2,0,0,0,2-2V82.37a2,2,0,0,0-2-2Z"/><path class="cls-2" d="M120.88,76.85a3,3,0,0,1-1.89-.67l-5.64-4.58A3,3,0,1,1,117.13,67l5.64,4.57a3,3,0,0,1-1.89,5.33Zm-5.64-19.5a3,3,0,0,1-2.22-1,3,3,0,0,1,.21-4.23L118.87,47a3,3,0,1,1,4,4.45l-5.64,5.09A3,3,0,0,1,115.24,57.35Z"/></g></svg>